<svg id="Capa_1" enable-background="new 0 0 512 512" height="512" viewBox="0 0 512 512" width="512" xmlns="http://www.w3.org/2000/svg"><g><path d="m0 496h512v-480h-512zm30-450h452v420h-452z"/><path d="m211 106c-82.901 0-150 67.088-150 150 0 82.901 67.088 150 150 150 82.9 0 150-67.087 150-150 0-82.899-67.087-150-150-150zm73.593 55.194-21.473 21.473c-14.717-10.49-32.71-16.667-52.12-16.667s-37.403 6.177-52.12 16.667l-21.473-21.473c20.959-16.337 46.595-25.194 73.593-25.194s52.635 8.857 73.593 25.194zm-13.593 94.806c0 11.111-3.047 21.52-8.333 30.454l-30.454-30.454 30.454-30.454c5.286 8.934 8.333 19.343 8.333 30.454zm-120 0c0-11.111 3.047-21.52 8.333-30.454l30.454 30.454-30.454 30.454c-5.286-8.934-8.333-19.343-8.333-30.454zm29.546-51.667c8.934-5.286 19.343-8.333 30.454-8.333s21.52 3.047 30.454 8.333l-30.454 30.454zm30.454 72.88 30.454 30.454c-8.934 5.286-19.343 8.333-30.454 8.333s-21.52-3.047-30.454-8.333zm-120-21.213c0-26.998 8.857-52.634 25.194-73.593l21.473 21.473c-10.49 14.717-16.667 32.71-16.667 52.12s6.177 37.403 16.667 52.12l-21.473 21.473c-16.337-20.959-25.194-46.595-25.194-73.593zm46.407 94.806 21.473-21.473c14.717 10.49 32.711 16.667 52.12 16.667s37.403-6.177 52.12-16.667l21.473 21.473c-20.958 16.337-46.595 25.194-73.593 25.194s-52.634-8.857-73.593-25.194zm168.399-21.213-21.473-21.473c10.49-14.717 16.667-32.71 16.667-52.12s-6.177-37.403-16.667-52.12l21.473-21.473c16.337 20.959 25.194 46.595 25.194 73.593s-8.857 52.634-25.194 73.593z"/><path d="m361 166h90v-90h-90zm30-60h30v30h-30z"/><path d="m406 346c-24.813 0-45 20.187-45 45s20.187 45 45 45 45-20.187 45-45-20.187-45-45-45zm0 60c-8.271 0-15-6.729-15-15s6.729-15 15-15 15 6.729 15 15-6.729 15-15 15z"/><path d="m391 286h30v30h-30z"/><path d="m391 196h30v30h-30z"/></g></svg>